<mxfile host="app.diagrams.net" modified="2022-08-18T17:18:13.639Z" agent="5.0 (Windows NT 10.0; Win64; x64) AppleWebKit/537.36 (KHTML, like Gecko) Chrome/104.0.0.0 Safari/537.36" etag="89uaviPLXhqZqxkwFN3y" version="20.2.5" type="github">
  <diagram id="0SxEWgDJXTkLoPQnoZ41" name="PÃ¡gina-1">
    <mxGraphModel dx="1422" dy="869" grid="1" gridSize="10" guides="1" tooltips="1" connect="1" arrows="1" fold="1" page="1" pageScale="1" pageWidth="1100" pageHeight="850" math="0" shadow="0">
      <root>
        <mxCell id="0" />
        <mxCell id="1" parent="0" />
      </root>
    </mxGraphModel>
  </diagram>
</mxfile>
